<svg width="1095" height="228" viewBox="0 0 1095 228" fill="none" xmlns="http://www.w3.org/2000/svg">
<g clip-path="url(#clip0_21_2)">
<path d="M29.9811 161.929C33.0802 156.673 36.2504 151.876 39.2087 146.951C41.246 143.56 43.6156 140.154 44.5775 136.429C45.0029 134.782 42.2765 132.349 41.04 130.238C37.8642 124.817 34.6625 119.409 31.5828 113.932C28.8109 109.003 26.5049 103.781 23.4026 99.0778C20.682 94.9531 22.6925 91.583 24.3725 88.3514C28.7012 80.0245 33.3431 71.8533 38.0788 63.7477C41.1097 58.5601 45.2026 53.891 47.5589 48.4442C49.3937 44.2029 52.3304 44.0876 55.6003 44.0501C67.2582 43.9162 78.9187 43.997 90.5782 43.9968C97.2959 43.9966 99.2233 42.3592 102.099 36.4078C104.553 31.3274 107.829 26.6454 110.712 21.7699C113.496 17.0623 116.316 12.3739 118.975 7.59627C120.402 5.03322 121.946 2.98269 125.259 2.99004C142.415 3.02807 159.574 3.17196 176.726 2.90535C181.963 2.82395 182.13 7.4799 183.725 9.96324C189.371 18.7535 193.988 28.2009 199.1 37.3403C200.917 40.589 202.789 43.8621 205.071 46.7834C208.97 51.7727 206.176 56.2611 204.537 60.8962C204.137 62.0264 203.637 63.1211 203.516 63.4161C201.066 66.688 198.703 69.2017 197.092 72.1294C193.782 78.1456 192.064 85.5411 187.497 90.234C181.917 95.9688 188.001 98.2511 189.16 101.679C190.733 106.33 193.478 110.635 196.062 114.881C198.613 119.072 201.468 123.096 204.421 127.019C206.382 129.625 207.124 136.908 205.424 140.133C202.205 146.238 199.222 152.476 195.784 158.454C191.247 166.342 186.168 173.922 181.743 181.869C180.254 184.544 178.594 185.066 175.912 185.045C163.754 184.945 151.584 185.289 139.439 184.877C133.518 184.677 130.488 187.297 127.904 192.15C122.144 202.968 116.096 213.641 109.8 224.156C108.87 225.71 105.965 226.848 103.958 226.872C86.6382 227.084 69.3142 226.948 51.9919 227.027C46.9018 227.05 47.1718 222.145 45.5278 219.595C38.898 209.315 33.1044 198.495 27.0232 187.862C25.0923 184.485 21.814 181.107 21.7274 177.665C21.6397 174.178 24.6337 170.555 26.4844 167.102C27.405 165.385 28.7879 163.915 29.9811 161.929ZM106.999 162.503C103.681 156.084 100.51 149.583 97.0069 143.266C92.791 135.664 88.3096 128.209 83.9102 120.709C80.4003 114.726 77.1945 108.523 73.2068 102.874C68.9978 96.9112 68.6332 93.3667 72.9061 87.4219C74.2181 85.5966 75.1098 83.4677 76.1796 81.4701C78.8467 76.4901 81.4402 71.4691 84.2047 66.5439C85.1188 64.9154 86.4653 63.5296 88.4054 61.0019C78.9199 61.0019 71.2745 60.9393 63.6329 61.0793C62.6527 61.0973 61.3352 61.936 60.7798 62.789C57.0891 68.4573 53.4667 74.1757 50.02 79.9951C47.9195 83.5414 46.76 87.8205 44.0984 90.809C41.523 93.7006 42.3835 95.5463 43.942 98.0026C45.9928 101.235 48.1335 104.426 49.9411 107.793C53.8188 115.015 57.2403 122.494 61.3406 129.583C66.6266 138.722 72.3895 147.585 77.9568 156.562C80.1749 160.138 82.8768 163.501 84.5243 167.32C86.209 171.226 88.3943 175.897 87.5982 179.646C86.5893 184.398 82.8167 188.571 80.1942 192.969C77.1092 198.143 73.9796 203.29 70.5302 209.011C78.0054 209.011 84.8312 208.566 91.5669 209.154C96.7395 209.606 98.9608 207.364 101.133 203.169C104.608 196.458 108.933 190.193 112.681 183.615C114.083 181.155 116.445 177.644 115.636 175.836C113.601 171.289 110.008 167.44 106.999 162.503ZM143.454 48.0401C145.188 44.6194 146.882 41.1773 148.679 37.79C149.286 36.6452 150.229 35.6829 150.893 34.5625C153.418 30.2983 155.892 26.0035 158.803 21.0021C150.393 21.0021 142.934 21.0021 135.475 21.0021C134.642 21.0021 133.804 20.9432 132.979 21.0222C132.366 21.0809 131.372 21.1544 131.229 21.5021C129.662 25.3001 127.336 28.6053 125.056 31.9925C121.779 36.8603 119.174 42.1888 115.793 46.9748C113.809 49.783 113.057 57.392 115.902 58.8363C120.327 61.0825 120.561 65.7845 122.851 69.1922C126.306 74.3344 128.357 80.3952 131.419 85.8317C135.055 92.2849 139.157 98.4737 143.006 104.808C146.032 109.789 149.011 114.799 151.952 119.83C154.469 124.134 157.159 128.37 159.235 132.883C159.975 134.492 159.767 137.165 158.909 138.774C154.809 146.465 150.358 153.969 145.983 161.511C145.018 163.174 143.853 164.721 142.326 166.998C151.428 166.998 159.411 167.023 167.394 166.961C168.237 166.955 169.481 166.696 169.852 166.116C172.129 162.548 174.157 158.822 176.368 155.21C178.66 151.466 181.203 147.871 183.382 144.066C185.586 140.216 188.756 136.365 185.801 131.548C182.663 126.432 179.161 121.534 176.146 116.35C172.26 109.671 168.809 102.739 164.97 96.0312C160.423 88.0863 155.541 80.3322 151.038 72.3636C148.106 67.1757 146.285 61.2038 142.661 56.6131C139.874 53.0814 140.948 51.2643 143.454 48.0401ZM48.9388 164.497C47.9665 165.998 47.2036 167.7 45.9861 168.965C40.3354 174.834 42.6176 179.945 46.7065 185.583C49.9312 190.03 52.122 195.226 55.0704 200.637C59.741 192.592 64.1084 185.069 68.6278 177.284C64.229 169.58 59.5216 161.335 54.9663 153.357C52.856 157.032 50.9422 160.365 48.9388 164.497ZM176.972 34.7006C176.122 32.9859 175.272 31.2712 174.513 29.7401C173.777 30.7557 172.802 31.9575 171.983 33.2575C168.358 39.0093 164.658 44.7211 161.297 50.6249C160.722 51.6361 161.279 53.7269 161.967 54.9509C166.071 62.2497 170.367 69.4406 174.335 76.2171C178.143 70.1611 182.347 64.0735 185.827 57.5968C186.947 55.5111 186.579 52.3223 186.103 49.7859C185.773 48.0226 184.077 46.5241 183.026 44.8852C181.023 41.7621 179.045 38.6231 176.972 34.7006ZM138.399 133.921C134.451 126.808 130.503 119.696 126.3 112.124C122.793 118.903 120.832 125.737 116.47 130.247C112.333 134.524 114.134 137.599 115.772 140.894C118.44 146.264 121.815 151.292 125.07 156.35C125.488 156.999 127.71 157.412 127.854 157.177C130.027 153.616 132.153 150.006 133.961 146.25C135.807 142.414 137.294 138.406 138.399 133.921ZM109.544 83.0311C107.238 79.444 104.932 75.8569 102.207 71.6186C100.536 75.0353 99.3079 77.8433 97.8188 80.505C96.3013 83.2176 94.6535 85.8779 92.8361 88.3975C89.8349 92.5581 90.4255 96.4072 92.9386 100.603C95.5863 105.023 97.6395 109.796 100.16 114.299C100.683 115.233 102.058 115.955 103.161 116.175C103.618 116.267 104.497 114.847 105.001 114.005C108.233 108.597 111.647 103.276 114.471 97.6596C115.339 95.9335 115.093 93.1701 114.381 91.2419C113.391 88.56 111.482 86.2173 109.544 83.0311Z" fill="white"/>
<path d="M364.232 209.314C370.236 207.359 372.427 203.676 371.542 196.771C365.413 201.205 358.814 202.307 351.729 200.006C344.581 197.685 338.522 189.781 337.975 182.38C337.413 174.767 338.04 167.221 342.265 160.84C344.265 157.821 348.029 155.21 351.528 154.105C358.62 151.865 365.965 151.661 372.764 156.794C372.918 155.575 373.047 154.544 373.21 153.256C377.242 153.256 381.317 153.256 386 153.256C386 163.595 386.15 174.023 385.948 184.445C385.811 191.521 386.186 198.827 384.571 205.612C380.571 222.419 363.861 224.642 351.784 219.961C344.783 217.248 341.237 211.853 339.834 204.039C345.886 204.596 352.002 201.856 356.846 207.959C358.023 209.442 361.511 209.09 364.232 209.314ZM364.739 188.788C371.699 184.611 374.285 179.495 371.788 172.33C370.798 169.488 367.956 166.101 365.273 165.322C361.452 164.213 356.22 163.706 353.596 168.085C350.715 172.895 349.825 178.167 352.856 183.666C355.406 188.292 359.193 189.418 364.739 188.788Z" fill="white"/>
<path d="M1044 66.9251C1043.86 58.1919 1045.13 50.3385 1052.49 45.2338C1061.14 39.2378 1069.47 39.4387 1078.78 45.7269C1078.94 44.4461 1079.08 43.2954 1079.24 42.1013C1083.49 42.1013 1087.45 42.1013 1092 42.1013C1092 53.7747 1092.22 65.3622 1091.91 76.9359C1091.75 82.9248 1090.8 88.9073 1089.97 94.8605C1088.69 104.104 1080.61 110.146 1071.01 110.048C1064.79 109.984 1058.68 110.129 1053.34 106.075C1049.1 102.862 1046.55 98.8423 1045.77 92.8385C1051.42 93.8195 1056.96 91.0882 1061.87 95.8786C1065.36 99.294 1069.93 98.9 1074.03 96.4485C1077.89 94.1475 1077.99 90.2652 1077.96 85.7796C1069.15 91.099 1059.95 91.4693 1052.14 86.1503C1046.3 82.178 1043.55 75.0303 1044 66.9251ZM1068.97 77.5409C1078.5 75.225 1079.08 67.8725 1077.36 60.9234C1076.02 55.5112 1071.78 52.5489 1067.03 53.0009C1061.55 53.5236 1057.3 58.0009 1057 63.6293C1056.48 73.5857 1060.01 76.4866 1068.97 77.5409Z" fill="white"/>
<path d="M640.475 89.7903C627.549 86.9094 622.916 79.8621 622.973 67.5398C623.004 60.6405 623.127 54.0184 628.091 48.261C634.053 41.3458 645.645 38.6777 653.434 43.1538C655.331 44.2443 657.432 47.5301 658.298 42.3506C658.334 42.1364 659.511 42.0233 660.158 42.0163C663.286 41.9824 666.415 42.001 669.998 42.001C669.998 58.2587 671.068 74.2929 669.655 90.1052C668.548 102.493 663.332 110.469 647.214 110.069C633.632 109.733 627.367 105.449 624.173 93.0006C628.056 93.0006 631.868 92.9448 635.676 93.0418C636.571 93.0646 637.808 93.3295 638.284 93.9478C641.769 98.4666 646.278 98.9725 651.196 97.233C656.876 95.2246 655.892 89.8125 656.894 86.6097C651.649 87.7096 646.256 88.8408 640.475 89.7903ZM635.506 67.0042C636.618 70.7803 636.859 75.2489 641.429 76.7321C649.41 79.3222 655.473 76.3946 656.649 68.1108C657.192 64.2808 655.495 59.3635 653.171 56.1152C650.913 52.9609 646.52 51.8651 642.242 53.9863C637.079 56.5466 635.763 61.2349 635.506 67.0042Z" fill="white"/>
<path d="M628 183.031C628 188.831 628 194.136 628 199.719C623.706 199.719 619.636 199.719 615 199.719C615 192.355 615 184.926 615 177.496C615 175.997 615.045 174.497 614.992 173C614.782 167.115 613.055 164.953 608.654 165C604.406 165.045 602.078 167.823 602.019 173.214C601.941 180.374 602 187.535 602 194.696C602 196.322 602 197.947 602 199.784C597.24 199.784 592.838 199.784 588.217 199.784C588.217 184.245 588.217 168.847 588.217 152.758C592.675 154.307 598.224 150.22 601.701 156.248C609.799 150.436 620.772 151.397 625.772 159.102C630.085 151.206 637.522 152.916 644.325 153.085C648.219 153.181 652.995 158.615 653.945 163.618C654.548 166.796 654.903 170.063 654.954 173.296C655.089 181.952 655 190.611 655 199.635C650.549 199.635 646.141 199.635 641 199.635C641 191.217 641.048 182.477 640.959 173.738C640.941 172.004 640.496 170.251 640.068 168.552C639.537 166.45 638.796 164.124 635.933 165.071C633.836 165.765 630.653 166.737 630.22 168.238C628.893 172.835 628.659 177.747 628 183.031Z" fill="white"/>
<path d="M729.627 25.0122C734.885 27.0053 740.153 28.0777 742.995 33.4026C745.55 38.1913 745.811 44.7826 742.463 48.9386C740.374 51.5317 737.634 53.5925 735.311 56.0111C734.705 56.6411 734.01 58.1456 734.299 58.517C736.068 60.7961 738.057 62.9169 740.125 64.9352C740.37 65.1746 742.164 64.5078 742.183 64.1993C742.576 57.4604 747.546 59.1194 751.538 59.0042C752.523 58.9758 753.509 59 755.862 59C753.952 64.7668 752.245 69.925 750.374 75.5744C753.645 79.3321 757.386 83.6313 761.127 87.9304C754.365 87.844 747.106 92.0819 741.387 85.0042C733.138 89.4845 724.718 91.6168 715.223 88.1926C709.154 86.0043 704.878 82.5874 704.143 76.3487C703.245 68.7223 703.932 61.2026 711.74 56.7016C712.17 56.4534 712.546 56.1095 713.317 55.5336C708.862 47.5259 706.143 39.1606 712.479 31.2354C716.56 26.1307 722.879 25.1094 729.627 25.0122ZM731.978 74.4593C728.574 70.6113 725.17 66.7634 721.761 62.9094C715.642 68.6347 714.744 72.5132 718.536 76.0072C722.07 79.2628 729.478 78.7329 731.978 74.4593ZM721.27 44.8039C722.633 46.5168 723.997 48.2297 725.666 50.3257C727.36 48.4619 728.579 46.5393 730.304 45.3483C733.563 43.0981 733.079 40.6677 730.796 38.4746C729.632 37.3559 727.313 36.3196 725.969 36.7297C722.678 37.7334 720.313 40.032 721.27 44.8039Z" fill="white"/>
<path d="M830.881 54.9992C839.061 58.154 841.835 63.1478 840.891 72.5615C840.173 79.7321 836.47 84.9382 829.134 87.5166C818.583 91.2253 808.588 90.7071 799.006 84.9649C794.325 82.16 791.58 77.061 790.003 69.0057C794.179 69.0057 798.261 68.9006 802.33 69.0875C803.227 69.1287 804.311 70.0296 804.912 70.8321C809.441 76.8813 817.294 79.1957 823.987 75.8327C825.456 75.0943 826.813 72.5329 826.773 70.8453C826.734 69.2117 825.16 66.7096 823.686 66.1749C817.983 64.1067 812.093 62.5006 806.193 61.0437C798.376 59.1133 792.452 52.7849 792 45.4328C791.47 36.8041 795.961 30.1012 804.306 27.3019C815.047 23.6985 825.288 23.8113 834.295 31.8029C838.438 35.4798 839.438 40.2421 838.821 45.9996C835.67 45.9996 832.532 46.1839 829.435 45.906C828.25 45.7997 826.392 44.8398 826.149 43.9223C824.415 37.3785 812.877 36.1975 807.67 40.0906C804.421 42.5198 806.125 47.4813 810.757 48.977C817.297 51.089 823.902 53.0001 830.881 54.9992Z" fill="white"/>
<path d="M301.319 82.1866C292.645 90.3565 282.533 91.4473 272.012 88.8672C262.007 86.4137 255.561 80.021 254.172 69.0006C258.016 69.0006 261.833 68.8398 265.621 69.0966C266.787 69.1757 268.505 70.1449 268.899 71.1334C271.552 77.79 284.546 78.4367 289.061 75.2134C290.304 74.3268 290.974 71.7592 290.817 70.064C290.685 68.6405 289.225 66.5956 287.908 66.1546C282 64.1767 275.948 62.6157 269.919 61.0163C264.572 59.5982 256.744 54.0465 256.753 45.4612C256.766 32.7246 261.979 27.8633 274.809 26.1587C279.893 25.4832 285.596 25.4853 290.346 27.1228C300.172 30.5095 301.262 32.7896 303.964 45.6619C299.525 45.6619 295.141 45.6619 290.689 45.6619C288.507 38.028 277.189 34.7881 271.181 40.5053C268.682 42.8832 269.352 46.1561 272.271 47.5059C276.557 49.4884 281.273 50.5406 285.803 52.0007C289.598 53.2242 293.691 53.9138 297.122 55.8028C306.422 60.9231 308.198 72.3289 301.319 82.1866Z" fill="white"/>
<path d="M289.753 190C284.781 190 280.238 190.393 275.794 189.898C270.578 189.317 267.22 190.957 266.429 196.203C265.887 199.791 263.854 200.196 260.907 200.038C257.76 199.869 254.598 200 250.457 200C258.618 179.037 266.573 158.602 274.594 138C275.566 138 276.557 138.004 277.547 137.999C290.793 137.944 290.646 137.996 295.039 150.298C298.426 159.786 302.29 169.103 305.853 178.53C308.508 185.553 311.022 192.63 313.661 199.853C308.782 199.853 304.026 199.853 299.674 199.853C296.207 196.547 298.319 188.543 289.753 190ZM290.004 174.526C287.51 167.455 285.015 160.383 282.204 152.414C279.039 161.447 276.172 169.63 273.313 177.79C279.301 177.79 285.056 177.79 291.259 177.79C290.738 176.752 290.393 176.064 290.004 174.526Z" fill="white"/>
<path d="M527.389 88.5941C527.037 79.7609 527.038 71.2744 526.993 62.7881C526.964 57.3289 523.545 53.1146 519.134 53.0021C514.115 52.8742 510.023 57.3128 510.006 62.9765C509.982 71.4466 510 79.9169 510 88.6931C505.427 88.6931 501.025 88.6931 496.309 88.6931C496.309 68.1173 496.309 47.3995 496.309 26.3403C500.505 26.3403 504.907 26.3403 509.808 26.3403C509.808 32.2994 509.808 38.5199 509.808 44.8442C514.007 43.4575 517.661 41.4607 521.457 41.1406C534.294 40.0578 539.884 47.7293 540.86 60.3413C541.576 69.6022 541 78.9632 541 88.9409C536.541 88.9409 532.132 88.9409 527.389 88.5941Z" fill="white"/>
<path d="M535 168C535 157.861 535 148.221 535 138.292C539.271 138.292 543.343 138.292 547.774 138.292C547.774 144.606 547.774 151.016 547.774 158.713C553.766 150.948 561.535 152.352 568.258 153.435C571.867 154.016 575.742 158.486 577.708 162.159C579.647 165.781 579.745 170.596 579.91 174.916C580.221 183.053 580 191.21 580 199.679C575.455 199.679 571.051 199.679 566 199.679C566 191.446 566.005 183.026 565.998 174.606C565.993 168.719 563.54 165.229 559.267 165C552.974 164.663 549.646 167.274 549.063 173.819C548.305 182.331 548.008 190.884 547.494 199.718C543.711 199.718 539.639 199.718 535 199.718C535 189.356 535 178.928 535 168Z" fill="white"/>
<path d="M380.572 53.1599C375.368 58.9312 369.07 56.6997 362.623 56.8428C364.404 51.0581 366.582 46.3556 372.219 43.9262C378.652 41.1538 385.145 40.0795 392.003 42.0094C399.322 44.0691 404.857 52.1344 404.975 61.3727C405.09 70.3532 405 79.3363 405 88.659C401.161 88.659 397.426 88.659 393.204 88.659C393.1 87.4192 392.976 85.929 392.812 83.9727C386.252 90.1616 378.813 91.0165 371.025 88.4471C363.622 86.0044 361.519 79.9832 362.042 72.9819C362.512 66.6854 367.687 61.9476 375.037 61.0399C380.56 60.3578 386.127 60.0305 391.636 59.5486C390.06 53.5765 389.093 52.9673 380.572 53.1599ZM379.891 78.9748C387.62 79.0042 391.545 76.0482 391.534 70C388.388 70 385.171 69.6049 382.109 70.1248C379.651 70.5422 377.382 72.0687 375.028 73.1031C376.392 74.9517 377.755 76.8003 379.891 78.9748Z" fill="white"/>
<path d="M347.915 69.9999C340.11 69.9999 332.791 69.9999 325.443 69.9999C326.67 77.0348 332.937 80.1725 339.371 77.1323C346.926 73.5628 346.926 73.5628 356.187 74.304C354.826 79.7051 352.521 84.2321 347.426 86.8472C338.77 91.2904 323.933 90.9112 317.012 82.6175C311.675 76.2221 309.06 64.7507 312.942 56.2503C319.834 41.1558 332.658 37.1441 347.519 44.8018C354.019 48.1512 358.324 62.0368 356.77 67.3856C355.417 72.0429 351.251 69.2558 347.915 69.9999ZM330.702 59.9999C334.975 59.9999 339.249 59.9999 343.617 59.9999C342.632 54.8301 339.86 52.0339 334.65 51.9976C329.549 51.9621 326.683 54.3489 325.271 59.9999C326.806 59.9999 328.289 59.9999 330.702 59.9999Z" fill="white"/>
<path d="M880.764 87.9884C868.485 92.9523 852.608 87.3987 849.023 76.0117C845.769 65.6723 846.261 52.3382 856.156 45.5348C866.806 38.2125 880.935 39.1129 888.847 48.6191C897.977 59.5896 897.01 76.9504 885.102 86.2979C884.021 87.1467 882.495 87.429 880.764 87.9884ZM867.951 76.999C879.858 77.9898 881.237 72.8506 880.929 63.084C880.752 57.4559 874.762 52.5747 869.953 53.5659C864.205 54.7505 860.812 58.1677 860.003 63.5354C859.368 67.7492 861.778 75.5808 867.951 76.999Z" fill="white"/>
<path d="M403.41 197.786C397.644 194.569 394.866 189.708 393.324 183.875C390.183 171.989 395.161 159.972 405.798 154.057C415.927 148.426 432.094 153.939 437.114 164.441C441.344 173.29 441.208 182.079 436.715 190.482C431.569 200.105 417.517 203.958 406.812 199.326C405.788 198.882 404.768 198.427 403.41 197.786ZM418.991 165.001C413.746 164.401 408.908 165.256 406.953 170.795C405.915 173.734 405.954 177.181 406.09 180.374C406.245 183.995 411.298 188.603 414.905 188.999C419.345 189.486 424.524 186.444 425.807 182.508C428.151 175.315 425.838 168.023 418.991 165.001Z" fill="white"/>
<path d="M589.233 42.9472C598.708 38.6092 608.178 41.1003 611.792 47.6844C614.313 52.2781 615.413 57.9993 615.829 63.32C616.476 71.5928 616 79.9532 616 88.6382C611.869 88.6382 607.797 88.6382 603 88.6382C603 85.2065 603.118 81.4564 602.973 77.7166C602.738 71.6532 602.908 65.4798 601.721 59.5919C601.216 57.0867 598.003 53.9395 595.498 53.367C593.103 52.8195 589.034 54.487 587.501 56.531C585.432 59.2884 584.392 63.2897 584.146 66.8427C583.654 73.9636 584 81.1425 584 88.6486C579.847 88.6486 575.776 88.6486 571.349 88.6486C571.349 73.4008 571.349 57.8834 571.349 41.7076C575.697 43.4794 581.453 38.9286 584.722 45.641C585.848 44.9221 587.343 43.968 589.233 42.9472Z" fill="white"/>
<path d="M1014.33 53.0108C1008.33 55.6144 1005.51 59.6257 1005.9 66.1602C1006.33 73.4538 1005.97 80.7948 1005.94 88.1152C1005.94 88.2482 1005.78 88.3806 1005.54 88.7567C1001.63 88.7567 997.566 88.7567 993.247 88.7567C993.247 73.3197 993.247 57.9316 993.247 42.2711C996.989 42.2711 1000.74 42.2711 1004.8 42.2711C1004.89 43.2606 1005 44.3562 1005.12 45.6492C1006.03 45.3155 1007 45.1661 1007.72 44.6574C1014.12 40.153 1021 39.4891 1027.81 43.0548C1034.57 46.5977 1036.98 52.9652 1037 60.3474C1037.01 69.6608 1037 78.9742 1037 88.6437C1032.86 88.6437 1028.79 88.6437 1024 88.6437C1024 80.3815 1024.06 71.8121 1023.98 63.2443C1023.92 56.9621 1020.86 53.6837 1014.33 53.0108Z" fill="white"/>
<path d="M683.433 171.771C689.446 172.662 695.542 172.911 699.199 177.877C704.755 185.421 701.788 194.428 694.877 197.894C685.734 202.48 676.037 203.329 667.355 196.87C663.911 194.308 661.756 190.015 659.604 185.797C666.024 185.905 672.324 182.586 677.526 188.588C678.819 190.08 682.519 190.149 684.934 189.759C686.375 189.527 687.467 187.132 688.716 185.71C687.541 184.803 686.495 183.492 685.165 183.068C681.359 181.852 677.484 180.724 673.552 180.06C666.438 178.858 662.282 173.938 661.923 166.779C661.521 158.76 667.887 153.605 673.737 153.268C680.352 152.888 687.352 151.271 693.759 155.829C698.126 158.935 699.602 162.769 700.124 167.999C696.306 167.999 692.826 168.1 689.36 167.929C688.482 167.886 687.466 167.139 686.825 166.433C684.111 163.44 680.704 163.589 677.3 164.395C676.386 164.612 675.389 165.954 675.14 166.955C674.986 167.575 676.001 168.883 676.789 169.26C678.788 170.218 680.955 170.826 683.433 171.771Z" fill="white"/>
<path d="M445.015 68.6633C444.786 60.1993 445.894 52.4464 452.102 46.7569C457.166 42.1162 463.612 40.0668 470.441 41.0897C480.038 42.5273 485.697 45.5268 488.42 53.9512C488.895 55.4209 488.882 57.0483 489.148 58.9994C485.225 58.9994 481.752 59.0678 478.285 58.9475C477.498 58.9202 476.424 58.4455 476.01 57.8246C473.966 54.7572 471.059 52.5652 467.564 53.3004C463.092 54.2411 459.672 56.8509 458.402 61.9514C456.69 68.8259 459.706 75.4664 466.485 76.9517C468.96 77.4937 472.338 77.0151 474.419 75.6514C480.168 71.8839 479.984 71.6022 488.554 72.2892C489.566 80.2231 485.114 86.543 475.673 88.5174C470.656 89.5666 465.002 89.453 460.003 88.287C451.489 86.301 446.548 80.4099 445.951 71.3462C445.901 70.5854 445.348 69.8576 445.015 68.6633Z" fill="white"/>
<path d="M955.029 40.7691C958.236 41.6329 961.417 42.0196 964.801 42.4309C964.801 46.1227 964.801 49.8611 964.801 53.9872C961.552 53.9872 958.476 53.9872 955.004 53.9872C955.004 60.3138 954.813 66.2707 955.071 72.2081C955.244 76.1667 956.752 76.7926 964.74 77.1752C964.74 80.9101 964.74 84.6657 964.74 89.688C959.111 88.772 953.424 88.4898 948.196 86.7947C943.928 85.4108 942.091 81.1557 942.028 76.6119C941.925 69.3012 942 61.9881 942 54.3004C939.802 54.3004 937.732 54.3004 935.329 54.3004C935.329 50.0609 935.329 46.1927 935.329 42.1267C937.402 42.1267 939.361 42.1267 941.702 42.1267C941.702 37.871 941.702 33.7893 941.702 29.353C946.14 29.353 950.212 29.353 955.004 29.353C955.004 32.805 955.004 36.5485 955.029 40.7691Z" fill="white"/>
<path d="M507.001 188.562C507 180.625 507 173.148 507 165.295C504.807 165.295 502.735 165.295 500.327 165.295C500.327 161.056 500.327 157.188 500.327 153.124C502.406 153.124 504.366 153.124 506.706 153.124C506.706 149.201 506.706 145.45 506.706 141.35C511.143 141.35 515.215 141.35 519.687 141.35C519.687 144.806 519.687 148.546 519.687 152.676C523.135 152.676 526.211 152.676 529.645 152.676C529.645 156.791 529.645 160.532 529.645 164.671C526.877 164.671 523.804 164.671 520.015 164.671C520.015 171.614 519.425 178.257 520.204 184.736C520.812 189.801 525.867 188.779 529.766 189.098C529.766 192.623 529.766 196.047 529.766 199.472C518.002 201.374 508.465 199.467 507.001 188.562Z" fill="white"/>
<path d="M923.192 54.9409C917.234 57.0781 915.031 60.1147 915.008 65.8647C914.977 73.3527 915 80.8409 915 88.6643C910.482 88.6643 906.075 88.6643 901.332 88.6643C901.332 73.4808 901.332 58.0775 901.332 42.6267C909.319 40.8101 913.055 41.6514 913.903 44.2983C919.407 42.8787 924.832 41.4796 930.793 39.9424C930.793 45.436 930.793 49.5217 930.793 53.5328C928.293 54.0047 925.951 54.4468 923.192 54.9409Z" fill="white"/>
<path d="M417.176 42C420.292 42 422.946 42 425.787 42C425.909 43.312 426.014 44.427 426.04 44.7143C431.28 43.1617 436.68 41.5616 442.717 39.7727C442.717 45.2307 442.717 49.3124 442.717 53.781C440.75 53.9006 438.607 53.7429 436.607 54.2044C429.494 55.8456 426.144 60.3404 426.021 68.3259C425.919 74.9774 426 81.6318 426 88.6423C421.862 88.6423 417.792 88.6423 412.937 88.6423C412.937 73.3997 412.937 57.861 412.937 42C414.423 42 415.569 42 417.176 42Z" fill="white"/>
<path d="M447.002 155.204C448.096 154.148 449.154 153.176 450.287 153.079C453.079 152.839 455.906 153 458.862 153C458.949 154.713 459.02 156.131 459.152 158.741C463.491 151.707 469.628 153.07 475.718 153.037C475.718 156.936 475.718 160.68 475.718 164.555C473.461 164.936 470.982 164.962 468.812 165.794C461.912 168.439 460.007 171.472 460.001 178.891C459.996 185.705 460 192.52 460 199.667C455.811 199.667 451.741 199.667 447 199.667C447 185.156 447 170.421 447.002 155.204Z" fill="white"/>
<path d="M318 185.994C318 169.855 318 154.215 318 138.288C322.28 138.288 326.353 138.288 330.716 138.288C330.716 158.619 330.716 179.022 330.716 199.713C326.719 199.713 322.646 199.713 318 199.713C318 195.364 318 190.928 318 185.994Z" fill="white"/>
<path d="M494 165.014C494 176.818 494 188.125 494 199.715C489.715 199.715 485.642 199.715 481.281 199.715C481.281 184.376 481.281 168.972 481.281 153.284C485.288 153.284 489.361 153.284 494 153.284C494 156.974 494 160.746 494 165.014Z" fill="white"/>
<path d="M984 83.888C984 85.8196 984 87.2629 984 88.8496C979.56 88.8496 975.605 88.8496 971.325 88.8496C971.325 73.4643 971.325 58.0581 971.325 42.3252C975.208 42.3252 979.281 42.3252 984 42.3252C984 55.8901 984 69.6449 984 83.888Z" fill="white"/>
<path d="M549 75.9911C549 64.5184 549 53.5446 549 42.2861C553.283 42.2861 557.356 42.2861 561.717 42.2861C561.717 57.6207 561.717 73.024 561.717 88.7144C557.716 88.7144 553.644 88.7144 549 88.7144C549 84.6969 549 80.5934 549 75.9911Z" fill="white"/>
<path d="M553.01 22.9791C557.941 21.4922 561.522 23.251 563.393 27.8636C564.765 31.2424 562.775 36.4221 559.56 37.8415C556.573 39.1605 549.702 37.3259 548.333 34.8438C546.357 31.2634 548.513 25.2954 553.01 22.9791Z" fill="white"/>
<path d="M976.208 38C970.754 37.0002 968.256 33.5316 969.006 28.5851C969.507 25.2786 974.56 21.5822 977.975 22.0236C982.363 22.5907 985.146 26.1505 985 31.009C984.844 36.1889 982.846 37.8579 976.208 38Z" fill="white"/>
<path d="M495.985 142.753C494.301 145.905 493.92 149.547 488.957 149.145C482.364 148.611 480.226 147.46 480 142.194C479.764 136.706 482.712 133.241 487.783 133.045C491.744 132.892 495.455 137.092 495.985 142.753Z" fill="white"/>
</g>
<defs>
<clipPath id="clip0_21_2">
<rect width="1095" height="228" fill="white"/>
</clipPath>
</defs>
</svg>
