<svg width="164" height="164" viewBox="0 0 164 164" fill="none" xmlns="http://www.w3.org/2000/svg">
<g clip-path="url(#clip0_220_2)">
<path d="M17.0159 129.927C17.2176 127.975 17.019 126.181 17.7206 124.867C22.1091 116.648 26.7651 108.573 31.1469 100.351C31.777 99.1683 31.9941 97.1398 31.4052 96.0337C26.9501 87.6651 22.0885 79.5101 17.7533 71.0829C16.8906 69.4058 17.0115 66.4454 17.9301 64.758C23.1492 55.1712 28.8591 45.8528 34.1544 36.3057C35.8862 33.1835 38.1215 31.9232 41.5691 31.9645C50.0644 32.0662 58.5621 31.9564 67.0579 32.0381C69.4991 32.0615 71.1325 31.7701 72.5457 29.15C76.6741 21.4955 81.517 14.2282 85.7035 6.6025C87.2058 3.86601 88.8703 2.93668 91.8662 2.97423C103.026 3.11412 114.194 2.86515 125.348 3.17401C127.288 3.22774 129.929 4.80696 130.959 6.47601C136.869 16.057 142.504 25.8158 147.925 35.6837C148.731 37.152 148.55 39.8568 147.729 41.4086C143.516 49.367 138.76 57.0405 134.636 65.041C133.68 66.8942 133.618 70.0751 134.574 71.8945C138.456 79.2828 142.442 86.7002 147.266 93.4829C151.243 99.0733 146.749 102.375 144.845 106.066C140.647 114.203 135.807 122.025 130.893 129.762C129.9 131.326 127.456 132.789 125.626 132.86C117.142 133.185 108.631 133.209 100.145 132.91C96.3417 132.776 93.9781 134.301 92.2774 137.314C88.1038 144.71 84.1572 152.239 79.7652 159.501C78.7924 161.109 76.3799 162.768 74.5908 162.813C62.603 163.111 50.603 163.064 38.6115 162.863C37.2864 162.841 35.5015 161.428 34.7577 160.17C29.3648 151.051 24.1964 141.799 18.9175 132.612C18.4294 131.763 17.6668 131.071 17.0159 129.927ZM53.0282 62.7537C56.5453 56.7459 60.0624 50.7382 64.0057 44.0026C57.3977 44.0026 52.066 43.7903 46.7695 44.1293C45.1349 44.2339 42.9953 45.4584 42.1222 46.8294C39.0098 51.717 36.9342 57.3641 33.3463 61.8225C29.5211 66.5758 30.689 70.3475 33.2606 74.7333C42.6252 90.7045 51.8291 106.771 61.2733 122.694C63.5008 126.45 63.1469 129.311 60.7542 132.918C57.0604 138.485 54.1012 144.54 50.4687 151.035C57.1337 151.035 63.068 151.102 68.9978 150.969C69.9749 150.947 71.3662 150.307 71.8307 149.519C75.6654 143.014 79.436 136.464 82.9435 129.779C83.6075 128.513 83.6184 126.246 82.9167 125.023C73.8747 109.262 64.5091 93.6845 55.5615 77.8706C53.1387 73.5885 48.0051 69.341 53.0282 62.7537ZM91.5136 19.9899C88.7864 24.7113 85.6871 29.2682 83.4956 34.2263C82.4664 36.5549 82.1281 40.2436 83.2789 42.3146C92.6445 59.1697 102.103 75.9965 112.314 92.3436C115.171 96.9161 114.475 99.6681 112.081 103.499C108.582 109.096 105.475 114.937 102.069 120.904C109.373 120.904 116.025 120.904 122.475 120.904C125.728 115.313 128.555 109.644 132.15 104.515C135.428 99.837 135.03 96.189 132.103 91.3801C122.49 75.5873 113.517 59.4065 104.095 43.4951C101.669 39.3985 102.454 36.2245 104.874 32.5134C108.488 26.9713 111.581 21.0892 115.055 15.0761C107.662 15.0761 101.01 15.0761 94.5397 15.0761C93.6519 16.6243 92.8527 18.0181 91.5136 19.9899ZM40.5984 111.079C40.1168 110.91 39.254 110.524 39.2083 110.604C36.3522 115.609 33.5349 120.636 30.7961 125.706C30.365 126.504 29.8324 127.782 30.1671 128.375C33.2036 133.757 36.4225 139.037 39.9718 144.991C42.3073 141.206 43.9959 138.128 46.0092 135.28C49.8443 129.854 50.3294 124.886 45.4053 119.659C43.3904 117.52 42.4185 114.399 40.5984 111.079ZM74.9969 51.7544C74.9089 51.6135 74.8422 51.4498 74.7251 51.34C74.6524 51.2719 74.4196 51.2361 74.4001 51.2692C71.1642 56.7605 67.9009 62.2368 64.7759 67.7909C64.4415 68.3852 64.6671 69.5783 65.0549 70.2498C67.9142 75.2001 70.8807 80.0885 74.263 85.7487C76.9934 80.9516 79.174 76.3308 82.0982 72.2417C84.2949 69.1701 83.8355 66.8332 82.0513 64.0401C79.6298 60.2496 77.3853 56.346 74.9969 51.7544ZM97.9799 104.356C101.932 99.809 100.86 95.5195 97.6436 91.0354C95.2896 87.7536 93.4273 84.1189 91.1639 80.3376C87.9762 85.717 85.0378 90.2872 82.5667 95.0975C81.8824 96.4296 82.0459 98.7484 82.751 100.145C85.3273 105.246 88.2965 110.149 91.3676 115.568C93.6675 111.615 95.5988 108.295 97.9799 104.356ZM117.428 35.0279C117.263 36.9092 116.366 39.1384 117.065 40.609C119.547 45.8301 122.573 50.7925 125.585 56.1988C128.611 50.9893 131.555 46.3796 133.968 41.5069C134.753 39.9203 134.84 37.2998 134.059 35.7521C131.527 30.7386 128.444 26.0035 125.416 20.8963C122.865 25.5188 120.403 29.9783 117.428 35.0279Z" fill="white"/>
</g>
<defs>
<clipPath id="clip0_220_2">
<rect width="164" height="164" fill="white"/>
</clipPath>
</defs>
</svg>
